<svg id="eAr0vHW4RET1" xmlns="http://www.w3.org/2000/svg" xmlns:xlink="http://www.w3.org/1999/xlink" viewBox="0 0 1440 900" shape-rendering="geometricPrecision" text-rendering="geometricPrecision"><line x1="720" y1="65.471079" x2="-720" y2="-65.471079" transform="translate(720 812.607722)" fill="#fff" stroke="#f49810" stroke-width="3"/><line x1="-693.615692" y1="59.499503" x2="693.615693" y2="-59.499503" transform="translate(746.384308 840.500497)" fill="none" stroke="#ef4a02" stroke-width="3"/><line x1="-720" y1="-29.749752" x2="720" y2="29.749752" transform="translate(720 810.750746)" fill="none" stroke="#eddb2f" stroke-width="3"/><line x1="-720.746735" y1="70.173073" x2="720.746736" y2="-70.173073" transform="translate(720.746736 798.817965)" fill="none" stroke="#e32c0a" stroke-width="5"/><line x1="-72" y1="0" x2="72" y2="0" transform="translate(-302.201076 661.129889)" fill="none" stroke="#3f5787" stroke-width="3"/><line x1="772.169613" y1="77.349865" x2="-772.169613" y2="-77.349864" transform="translate(642.743149 876.167829)" fill="none" stroke="#fba22b" stroke-width="4"/><line x1="-72" y1="0" x2="72" y2="0" transform="translate(2308.024602 1049.208249)" fill="none" stroke="#3f5787" stroke-width="3"/><line x1="-881.150521" y1="-4.543881" x2="881.150522" y2="4.543881" transform="translate(578.949446 873.53492)" fill="none" stroke="#f35403" stroke-width="2"/><line x1="-915.705444" y1="-44.624627" x2="915.705444" y2="44.624627" transform="translate(648.05929 855.375373)" fill="none" stroke="#ea3a0c" stroke-width="6"/><line x1="-72" y1="0" x2="72" y2="0" transform="translate(782.291874 1091.737384)" fill="none" stroke="#3f5787" stroke-width="3"/></svg>